<?xml version="1.0" encoding="UTF-8" standalone="no"?>
<!DOCTYPE svg PUBLIC "-//W3C//DTD SVG 1.1//EN"
 "http://www.w3.org/Graphics/SVG/1.1/DTD/svg11.dtd">
<!-- Generated by graphviz version 2.30.1 (20140821.0912)
 -->
<!-- Title: Output Pipeline Pages: 1 -->
<svg width="508pt" height="362pt"
 viewBox="0.00 0.00 508.00 362.00" xmlns="http://www.w3.org/2000/svg" xmlns:xlink="http://www.w3.org/1999/xlink">
<g id="graph0" class="graph" transform="scale(1 1) rotate(0) translate(4 358)">
<title>Output Pipeline</title>
<polygon fill="white" stroke="white" points="-4,5 -4,-358 505,-358 505,5 -4,5"/>
<g id="clust2" class="cluster"><title>cluster_internal</title>
<polygon fill="none" stroke="black" stroke-dasharray="5,2" points="118,-91 118,-310 475,-310 475,-91 118,-91"/>
<text text-anchor="middle" x="296.5" y="-294.8" font-family="Times,serif" font-size="14.00">Internal Pipeline</text>
</g>
<g id="clust5" class="cluster"><title>cluster_output</title>
<polygon fill="none" stroke="black" stroke-dasharray="5,2" points="8,-8 8,-83 492,-83 492,-8 8,-8"/>
<text text-anchor="middle" x="250" y="-67.8" font-family="Times,serif" font-size="14.00">Outputs</text>
</g>
<!-- drm_crtc -->
<g id="node1" class="node"><title>drm_crtc</title>
<polygon fill="lightgrey" stroke="black" points="329,-354 263,-354 263,-318 329,-318 329,-354"/>
<text text-anchor="middle" x="296" y="-332.3" font-family="Times,serif" font-size="14.00">drm_crtc</text>
</g>
<!-- drm_encoder A -->
<g id="node2" class="node"><title>drm_encoder A</title>
<polygon fill="lightgrey" stroke="black" points="467,-279 365,-279 365,-243 467,-243 467,-279"/>
<text text-anchor="middle" x="416" y="-257.3" font-family="Times,serif" font-size="14.00">drm_encoder A</text>
</g>
<!-- drm_crtc&#45;&gt;drm_encoder A -->
<g id="edge4" class="edge"><title>drm_crtc&#45;&gt;drm_encoder A</title>
<path fill="none" stroke="black" d="M329.217,-322.747C337.837,-319.08 346.955,-314.754 355,-310 366.809,-303.021 378.871,-294.004 389.118,-285.672"/>
<polygon fill="black" stroke="black" points="391.46,-288.276 396.907,-279.189 386.982,-282.896 391.46,-288.276"/>
</g>
<!-- drm_encoder B -->
<g id="node3" class="node"><title>drm_encoder B</title>
<polygon fill="lightgrey" stroke="black" points="346.25,-279 245.75,-279 245.75,-243 346.25,-243 346.25,-279"/>
<text text-anchor="middle" x="296" y="-257.3" font-family="Times,serif" font-size="14.00">drm_encoder B</text>
</g>
<!-- drm_crtc&#45;&gt;drm_encoder B -->
<g id="edge5" class="edge"><title>drm_crtc&#45;&gt;drm_encoder B</title>
<path fill="none" stroke="black" d="M296,-317.7C296,-309.245 296,-298.869 296,-289.373"/>
<polygon fill="black" stroke="black" points="299.5,-289.176 296,-279.176 292.5,-289.176 299.5,-289.176"/>
</g>
<!-- drm_encoder C -->
<g id="node4" class="node"><title>drm_encoder C</title>
<polygon fill="lightgrey" stroke="black" points="227.25,-279 126.75,-279 126.75,-243 227.25,-243 227.25,-279"/>
<text text-anchor="middle" x="177" y="-257.3" font-family="Times,serif" font-size="14.00">drm_encoder C</text>
</g>
<!-- drm_crtc&#45;&gt;drm_encoder C -->
<g id="edge6" class="edge"><title>drm_crtc&#45;&gt;drm_encoder C</title>
<path fill="none" stroke="black" d="M262.784,-323.157C253.834,-319.436 244.33,-314.98 236,-310 224.489,-303.118 212.826,-294.142 202.942,-285.816"/>
<polygon fill="black" stroke="black" points="204.955,-282.929 195.101,-279.036 200.376,-288.224 204.955,-282.929"/>
</g>
<!-- drm_connector A -->
<g id="node8" class="node"><title>drm_connector A</title>
<polygon fill="none" stroke="black" points="483.25,-52 370.75,-52 370.75,-16 483.25,-16 483.25,-52"/>
<text text-anchor="middle" x="427" y="-30.3" font-family="Times,serif" font-size="14.00">drm_connector A</text>
</g>
<!-- drm_encoder A&#45;&gt;drm_connector A -->
<g id="edge7" class="edge"><title>drm_encoder A&#45;&gt;drm_connector A</title>
<path fill="none" stroke="black" d="M416.845,-242.718C418.749,-203.768 423.388,-108.881 425.677,-62.0519"/>
<polygon fill="black" stroke="black" points="429.175,-62.1917 426.167,-52.0327 422.183,-61.8498 429.175,-62.1917"/>
</g>
<!-- drm_bridge B -->
<g id="node5" class="node"><title>drm_bridge B</title>
<polygon fill="lightgrey" stroke="black" points="342.25,-207 249.75,-207 249.75,-171 342.25,-171 342.25,-207"/>
<text text-anchor="middle" x="296" y="-185.3" font-family="Times,serif" font-size="14.00">drm_bridge B</text>
</g>
<!-- drm_encoder B&#45;&gt;drm_bridge B -->
<g id="edge1" class="edge"><title>drm_encoder B&#45;&gt;drm_bridge B</title>
<path fill="none" stroke="black" d="M296,-242.697C296,-234.983 296,-225.712 296,-217.112"/>
<polygon fill="black" stroke="black" points="299.5,-217.104 296,-207.104 292.5,-217.104 299.5,-217.104"/>
</g>
<!-- drm_bridge C1 -->
<g id="node6" class="node"><title>drm_bridge C1</title>
<polygon fill="lightgrey" stroke="black" points="226,-207 126,-207 126,-171 226,-171 226,-207"/>
<text text-anchor="middle" x="176" y="-185.3" font-family="Times,serif" font-size="14.00">drm_bridge C1</text>
</g>
<!-- drm_encoder C&#45;&gt;drm_bridge C1 -->
<g id="edge2" class="edge"><title>drm_encoder C&#45;&gt;drm_bridge C1</title>
<path fill="none" stroke="black" d="M176.753,-242.697C176.643,-234.983 176.51,-225.712 176.387,-217.112"/>
<polygon fill="black" stroke="black" points="179.887,-217.053 176.244,-207.104 172.888,-217.153 179.887,-217.053"/>
</g>
<!-- drm_connector B -->
<g id="node9" class="node"><title>drm_connector B</title>
<polygon fill="none" stroke="black" points="352,-52 240,-52 240,-16 352,-16 352,-52"/>
<text text-anchor="middle" x="296" y="-30.3" font-family="Times,serif" font-size="14.00">drm_connector B</text>
</g>
<!-- drm_bridge B&#45;&gt;drm_connector B -->
<g id="edge8" class="edge"><title>drm_bridge B&#45;&gt;drm_connector B</title>
<path fill="none" stroke="black" d="M296,-170.746C296,-144.461 296,-94.1295 296,-62.6883"/>
<polygon fill="black" stroke="black" points="299.5,-62.4253 296,-52.4253 292.5,-62.4254 299.5,-62.4253"/>
</g>
<!-- drm_bridge C2 -->
<g id="node7" class="node"><title>drm_bridge C2</title>
<polygon fill="lightgrey" stroke="black" points="226,-135 126,-135 126,-99 226,-99 226,-135"/>
<text text-anchor="middle" x="176" y="-113.3" font-family="Times,serif" font-size="14.00">drm_bridge C2</text>
</g>
<!-- drm_bridge C1&#45;&gt;drm_bridge C2 -->
<g id="edge3" class="edge"><title>drm_bridge C1&#45;&gt;drm_bridge C2</title>
<path fill="none" stroke="black" d="M176,-170.697C176,-162.983 176,-153.712 176,-145.112"/>
<polygon fill="black" stroke="black" points="179.5,-145.104 176,-135.104 172.5,-145.104 179.5,-145.104"/>
</g>
<!-- drm_connector C -->
<g id="node10" class="node"><title>drm_connector C</title>
<polygon fill="none" stroke="black" points="222,-52 110,-52 110,-16 222,-16 222,-52"/>
<text text-anchor="middle" x="166" y="-30.3" font-family="Times,serif" font-size="14.00">drm_connector C</text>
</g>
<!-- drm_bridge C2&#45;&gt;drm_connector C -->
<g id="edge9" class="edge"><title>drm_bridge C2&#45;&gt;drm_connector C</title>
<path fill="none" stroke="black" d="M173.879,-98.822C172.567,-88.1903 170.853,-74.306 169.358,-62.2035"/>
<polygon fill="black" stroke="black" points="172.817,-61.649 168.118,-52.1533 165.869,-62.5068 172.817,-61.649"/>
</g>
<!-- drm_panel -->
<g id="node11" class="node"><title>drm_panel</title>
<polygon fill="none" stroke="black" points="91.25,-52 16.75,-52 16.75,-16 91.25,-16 91.25,-52"/>
<text text-anchor="middle" x="54" y="-30.3" font-family="Times,serif" font-size="14.00">drm_panel</text>
</g>
</g>
</svg>
