<?xml version="1.0" encoding="UTF-8" standalone="no"?>
<!DOCTYPE svg PUBLIC "-//W3C//DTD SVG 1.1//EN"
 "http://www.w3.org/Graphics/SVG/1.1/DTD/svg11.dtd">
<!-- Generated by graphviz version 2.30.1 (20140821.0912)
 -->
<!-- Title: %3 Pages: 1 -->
<svg width="1181pt" height="416pt"
 viewBox="0.00 0.00 1181.00 416.00" xmlns="http://www.w3.org/2000/svg" xmlns:xlink="http://www.w3.org/1999/xlink">
<g id="graph0" class="graph" transform="scale(1 1) rotate(0) translate(4 412)">
<title>%3</title>
<polygon fill="white" stroke="white" points="-4,5 -4,-412 1178,-412 1178,5 -4,5"/>
<g id="clust1" class="cluster"><title>cluster_state</title>
<polygon fill="none" stroke="black" stroke-dasharray="5,2" points="8,-251 8,-400 985,-400 985,-251 8,-251"/>
<text text-anchor="middle" x="496.5" y="-384.8" font-family="Times,serif" font-size="14.00">Free&#45;standing state</text>
</g>
<g id="clust2" class="cluster"><title>cluster_current</title>
<polygon fill="none" stroke="black" stroke-dasharray="5,2" points="488,-8 488,-231 1165,-231 1165,-8 488,-8"/>
<text text-anchor="middle" x="826.5" y="-215.8" font-family="Times,serif" font-size="14.00">Current state</text>
</g>
<!-- drm_atomic_state -->
<g id="node1" class="node"><title>drm_atomic_state</title>
<polygon fill="none" stroke="black" points="598.25,-369 483.75,-369 483.75,-333 598.25,-333 598.25,-369"/>
<text text-anchor="middle" x="541" y="-347.3" font-family="Times,serif" font-size="14.00">drm_atomic_state</text>
</g>
<!-- duplicated drm_plane_state A -->
<g id="node2" class="node"><title>duplicated drm_plane_state A</title>
<polygon fill="none" stroke="black" points="196,-295 16,-295 16,-259 196,-259 196,-295"/>
<text text-anchor="middle" x="106" y="-273.3" font-family="Times,serif" font-size="14.00">duplicated drm_plane_state A</text>
</g>
<!-- drm_atomic_state&#45;&gt;duplicated drm_plane_state A -->
<g id="edge1" class="edge"><title>drm_atomic_state&#45;&gt;duplicated drm_plane_state A</title>
<path fill="none" stroke="black" d="M483.605,-340.745C418.786,-330.261 309.864,-312.55 206.125,-295.182"/>
<polygon fill="black" stroke="black" points="206.544,-291.704 196.103,-293.503 205.387,-298.608 206.544,-291.704"/>
</g>
<!-- duplicated drm_plane_state B -->
<g id="node3" class="node"><title>duplicated drm_plane_state B</title>
<polygon fill="none" stroke="black" points="393.25,-295 214.75,-295 214.75,-259 393.25,-259 393.25,-295"/>
<text text-anchor="middle" x="304" y="-273.3" font-family="Times,serif" font-size="14.00">duplicated drm_plane_state B</text>
</g>
<!-- drm_atomic_state&#45;&gt;duplicated drm_plane_state B -->
<g id="edge2" class="edge"><title>drm_atomic_state&#45;&gt;duplicated drm_plane_state B</title>
<path fill="none" stroke="black" d="M484.834,-332.937C450.426,-322.484 406.217,-309.053 370.123,-298.088"/>
<polygon fill="black" stroke="black" points="370.758,-294.623 360.173,-295.065 368.724,-301.321 370.758,-294.623"/>
</g>
<!-- duplicated drm_crtc_state -->
<g id="node4" class="node"><title>duplicated drm_crtc_state</title>
<polygon fill="none" stroke="black" points="570,-295 412,-295 412,-259 570,-259 570,-295"/>
<text text-anchor="middle" x="491" y="-273.3" font-family="Times,serif" font-size="14.00">duplicated drm_crtc_state</text>
</g>
<!-- drm_atomic_state&#45;&gt;duplicated drm_crtc_state -->
<g id="edge3" class="edge"><title>drm_atomic_state&#45;&gt;duplicated drm_crtc_state</title>
<path fill="none" stroke="black" d="M529.151,-332.937C523.137,-324.277 515.704,-313.573 509.001,-303.921"/>
<polygon fill="black" stroke="black" points="511.69,-301.658 503.112,-295.441 505.941,-305.651 511.69,-301.658"/>
</g>
<!-- duplicated drm_connector_state -->
<g id="node5" class="node"><title>duplicated drm_connector_state</title>
<polygon fill="none" stroke="black" points="779.25,-295 588.75,-295 588.75,-259 779.25,-259 779.25,-295"/>
<text text-anchor="middle" x="684" y="-273.3" font-family="Times,serif" font-size="14.00">duplicated drm_connector_state</text>
</g>
<!-- drm_atomic_state&#45;&gt;duplicated drm_connector_state -->
<g id="edge4" class="edge"><title>drm_atomic_state&#45;&gt;duplicated drm_connector_state</title>
<path fill="none" stroke="black" d="M574.889,-332.937C594.602,-323.012 619.647,-310.401 640.769,-299.766"/>
<polygon fill="black" stroke="black" points="642.501,-302.813 649.859,-295.19 639.353,-296.561 642.501,-302.813"/>
</g>
<!-- duplicated driver private state -->
<g id="node6" class="node"><title>duplicated driver private state</title>
<polygon fill="none" stroke="black" points="976.25,-295 797.75,-295 797.75,-259 976.25,-259 976.25,-295"/>
<text text-anchor="middle" x="887" y="-273.3" font-family="Times,serif" font-size="14.00">duplicated driver private state</text>
</g>
<!-- drm_atomic_state&#45;&gt;duplicated driver private state -->
<g id="edge5" class="edge"><title>drm_atomic_state&#45;&gt;duplicated driver private state</title>
<path fill="none" stroke="black" d="M598.523,-338.03C652.059,-326.89 732.745,-310.099 795.185,-297.106"/>
<polygon fill="black" stroke="black" points="795.965,-300.519 805.043,-295.055 794.539,-293.665 795.965,-300.519"/>
</g>
<!-- drm_device -->
<g id="node7" class="node"><title>drm_device</title>
<polygon fill="none" stroke="black" points="861.25,-200 780.75,-200 780.75,-164 861.25,-164 861.25,-200"/>
<text text-anchor="middle" x="821" y="-178.3" font-family="Times,serif" font-size="14.00">drm_device</text>
</g>
<!-- drm_atomic_state&#45;&gt;drm_device -->
<g id="edge16" class="edge"><title>drm_atomic_state&#45;&gt;drm_device</title>
<path fill="none" stroke="black" d="M598.583,-347.052C712.921,-340.608 959.796,-323.518 985,-295 1025.09,-249.632 933.014,-213.805 871.226,-195.777"/>
<polygon fill="black" stroke="black" points="872.17,-192.406 861.594,-193.037 870.255,-199.139 872.17,-192.406"/>
<text text-anchor="middle" x="1038" y="-273.3" font-family="Times,serif" font-size="14.00">atomic_commit</text>
</g>
<!-- duplicated drm_plane_state A&#45;&gt;drm_device -->
<!-- drm_plane A -->
<g id="node8" class="node"><title>drm_plane A</title>
<polygon fill="none" stroke="black" points="635.25,-126 546.75,-126 546.75,-90 635.25,-90 635.25,-126"/>
<text text-anchor="middle" x="591" y="-104.3" font-family="Times,serif" font-size="14.00">drm_plane A</text>
</g>
<!-- drm_device&#45;&gt;drm_plane A -->
<g id="edge6" class="edge"><title>drm_device&#45;&gt;drm_plane A</title>
<path fill="none" stroke="black" d="M780.674,-168.376C743.103,-156.615 686.798,-138.989 645.289,-125.995"/>
<polygon fill="black" stroke="black" points="646.197,-122.612 635.608,-122.964 644.106,-129.292 646.197,-122.612"/>
</g>
<!-- drm_plane B -->
<g id="node9" class="node"><title>drm_plane B</title>
<polygon fill="none" stroke="black" points="762,-126 674,-126 674,-90 762,-90 762,-126"/>
<text text-anchor="middle" x="718" y="-104.3" font-family="Times,serif" font-size="14.00">drm_plane B</text>
</g>
<!-- drm_device&#45;&gt;drm_plane B -->
<g id="edge7" class="edge"><title>drm_device&#45;&gt;drm_plane B</title>
<path fill="none" stroke="black" d="M796.59,-163.937C782.965,-154.412 765.802,-142.415 750.994,-132.063"/>
<polygon fill="black" stroke="black" points="752.793,-129.051 742.591,-126.19 748.782,-134.788 752.793,-129.051"/>
</g>
<!-- drm_crtc -->
<g id="node10" class="node"><title>drm_crtc</title>
<polygon fill="none" stroke="black" points="854,-126 788,-126 788,-90 854,-90 854,-126"/>
<text text-anchor="middle" x="821" y="-104.3" font-family="Times,serif" font-size="14.00">drm_crtc</text>
</g>
<!-- drm_device&#45;&gt;drm_crtc -->
<g id="edge8" class="edge"><title>drm_device&#45;&gt;drm_crtc</title>
<path fill="none" stroke="black" d="M821,-163.937C821,-155.807 821,-145.876 821,-136.705"/>
<polygon fill="black" stroke="black" points="824.5,-136.441 821,-126.441 817.5,-136.441 824.5,-136.441"/>
</g>
<!-- drm_connector -->
<g id="node11" class="node"><title>drm_connector</title>
<polygon fill="none" stroke="black" points="987.25,-126 888.75,-126 888.75,-90 987.25,-90 987.25,-126"/>
<text text-anchor="middle" x="938" y="-104.3" font-family="Times,serif" font-size="14.00">drm_connector</text>
</g>
<!-- drm_device&#45;&gt;drm_connector -->
<g id="edge9" class="edge"><title>drm_device&#45;&gt;drm_connector</title>
<path fill="none" stroke="black" d="M848.727,-163.937C864.495,-154.234 884.431,-141.966 901.462,-131.485"/>
<polygon fill="black" stroke="black" points="903.384,-134.412 910.066,-126.19 899.715,-128.45 903.384,-134.412"/>
</g>
<!-- driver private object -->
<g id="node12" class="node"><title>driver private object</title>
<polygon fill="none" stroke="black" points="1144.25,-126 1017.75,-126 1017.75,-90 1144.25,-90 1144.25,-126"/>
<text text-anchor="middle" x="1081" y="-104.3" font-family="Times,serif" font-size="14.00">driver private object</text>
</g>
<!-- drm_device&#45;&gt;driver private object -->
<g id="edge10" class="edge"><title>drm_device&#45;&gt;driver private object</title>
<path fill="none" stroke="black" d="M861.34,-169.829C900.839,-158.891 961.868,-141.99 1009.58,-128.777"/>
<polygon fill="black" stroke="black" points="1010.54,-132.143 1019.24,-126.102 1008.67,-125.397 1010.54,-132.143"/>
</g>
<!-- drm_plane_state A -->
<g id="node13" class="node"><title>drm_plane_state A</title>
<polygon fill="none" stroke="black" points="616,-52 496,-52 496,-16 616,-16 616,-52"/>
<text text-anchor="middle" x="556" y="-30.3" font-family="Times,serif" font-size="14.00">drm_plane_state A</text>
</g>
<!-- drm_plane A&#45;&gt;drm_plane_state A -->
<g id="edge11" class="edge"><title>drm_plane A&#45;&gt;drm_plane_state A</title>
<path fill="none" stroke="black" d="M582.705,-89.937C578.582,-81.4537 573.504,-71.0092 568.888,-61.513"/>
<polygon fill="black" stroke="black" points="571.998,-59.9042 564.478,-52.4407 565.702,-62.9646 571.998,-59.9042"/>
</g>
<!-- drm_plane_state B -->
<g id="node14" class="node"><title>drm_plane_state B</title>
<polygon fill="none" stroke="black" points="753.25,-52 634.75,-52 634.75,-16 753.25,-16 753.25,-52"/>
<text text-anchor="middle" x="694" y="-30.3" font-family="Times,serif" font-size="14.00">drm_plane_state B</text>
</g>
<!-- drm_plane B&#45;&gt;drm_plane_state B -->
<g id="edge12" class="edge"><title>drm_plane B&#45;&gt;drm_plane_state B</title>
<path fill="none" stroke="black" d="M712.312,-89.937C709.543,-81.6305 706.148,-71.4435 703.036,-62.1077"/>
<polygon fill="black" stroke="black" points="706.296,-60.8207 699.814,-52.4407 699.656,-63.0343 706.296,-60.8207"/>
</g>
<!-- drm_crtc_state -->
<g id="node15" class="node"><title>drm_crtc_state</title>
<polygon fill="none" stroke="black" points="870,-52 772,-52 772,-16 870,-16 870,-52"/>
<text text-anchor="middle" x="821" y="-30.3" font-family="Times,serif" font-size="14.00">drm_crtc_state</text>
</g>
<!-- drm_crtc&#45;&gt;drm_crtc_state -->
<g id="edge13" class="edge"><title>drm_crtc&#45;&gt;drm_crtc_state</title>
<path fill="none" stroke="black" d="M821,-89.937C821,-81.8072 821,-71.8761 821,-62.7047"/>
<polygon fill="black" stroke="black" points="824.5,-62.4406 821,-52.4407 817.5,-62.4407 824.5,-62.4406"/>
</g>
<!-- drm_connector_state -->
<g id="node16" class="node"><title>drm_connector_state</title>
<polygon fill="none" stroke="black" points="1019.25,-52 888.75,-52 888.75,-16 1019.25,-16 1019.25,-52"/>
<text text-anchor="middle" x="954" y="-30.3" font-family="Times,serif" font-size="14.00">drm_connector_state</text>
</g>
<!-- drm_connector&#45;&gt;drm_connector_state -->
<g id="edge14" class="edge"><title>drm_connector&#45;&gt;drm_connector_state</title>
<path fill="none" stroke="black" d="M941.792,-89.937C943.618,-81.7188 945.853,-71.66 947.91,-62.4059"/>
<polygon fill="black" stroke="black" points="951.372,-62.9618 950.124,-52.4407 944.538,-61.4433 951.372,-62.9618"/>
</g>
<!-- driver private state -->
<g id="node17" class="node"><title>driver private state</title>
<polygon fill="none" stroke="black" points="1156.25,-52 1037.75,-52 1037.75,-16 1156.25,-16 1156.25,-52"/>
<text text-anchor="middle" x="1097" y="-30.3" font-family="Times,serif" font-size="14.00">driver private state</text>
</g>
<!-- driver private object&#45;&gt;driver private state -->
<g id="edge15" class="edge"><title>driver private object&#45;&gt;driver private state</title>
<path fill="none" stroke="black" d="M1084.79,-89.937C1086.62,-81.7188 1088.85,-71.66 1090.91,-62.4059"/>
<polygon fill="black" stroke="black" points="1094.37,-62.9618 1093.12,-52.4407 1087.54,-61.4433 1094.37,-62.9618"/>
</g>
</g>
</svg>
