<?xml version="1.0" encoding="UTF-8" standalone="no"?>
<!DOCTYPE svg PUBLIC "-//W3C//DTD SVG 1.1//EN"
 "http://www.w3.org/Graphics/SVG/1.1/DTD/svg11.dtd">
<!-- Generated by graphviz version 2.30.1 (20140821.0912)
 -->
<!-- Title: board Pages: 1 -->
<svg width="317pt" height="362pt"
 viewBox="0.00 0.00 317.00 362.00" xmlns="http://www.w3.org/2000/svg" xmlns:xlink="http://www.w3.org/1999/xlink">
<g id="graph0" class="graph" transform="scale(1 1) rotate(0) translate(4 358)">
<title>board</title>
<polygon fill="white" stroke="white" points="-4,5 -4,-358 314,-358 314,5 -4,5"/>
<!-- scaler -->
<g id="node1" class="node"><title>scaler</title>
<path fill="lightblue" stroke="black" d="M154,-105C154,-105 226,-105 226,-105 232,-105 238,-111 238,-117 238,-117 238,-131 238,-131 238,-137 232,-143 226,-143 226,-143 154,-143 154,-143 148,-143 142,-137 142,-131 142,-131 142,-117 142,-117 142,-111 148,-105 154,-105"/>
<text text-anchor="middle" x="153.5" y="-120.3" font-family="Times,serif" font-size="14.00">0</text>
<polyline fill="none" stroke="black" points="165,-105 165,-143 "/>
<text text-anchor="middle" x="190" y="-127.8" font-family="Times,serif" font-size="14.00">Host</text>
<text text-anchor="middle" x="190" y="-112.8" font-family="Times,serif" font-size="14.00">Scaler</text>
<polyline fill="none" stroke="black" points="215,-105 215,-143 "/>
<text text-anchor="middle" x="226.5" y="-120.3" font-family="Times,serif" font-size="14.00">1</text>
</g>
<!-- io -->
<g id="node4" class="node"><title>io</title>
<path fill="aquamarine" stroke="black" d="M228,-1C228,-1 290,-1 290,-1 296,-1 302,-7 302,-13 302,-13 302,-25 302,-25 302,-31 296,-37 290,-37 290,-37 228,-37 228,-37 222,-37 216,-31 216,-25 216,-25 216,-13 216,-13 216,-7 222,-1 228,-1"/>
<text text-anchor="middle" x="227.5" y="-15.3" font-family="Times,serif" font-size="14.00">0</text>
<polyline fill="none" stroke="black" points="239,-1 239,-37 "/>
<text text-anchor="middle" x="270.5" y="-15.3" font-family="Times,serif" font-size="14.00">V4L I/O</text>
</g>
<!-- scaler&#45;&gt;io -->
<g id="edge3" class="edge"><title>scaler:scaler_1&#45;&gt;io:io_0</title>
<path fill="none" stroke="blue" d="M227,-104C227,-78.3333 227,-69.5104 227,-48.0547"/>
<polygon fill="blue" stroke="blue" points="230.5,-48 227,-38 223.5,-48 230.5,-48"/>
<text text-anchor="middle" x="268" y="-74.8" font-family="Times,serif" font-size="14.00">HQ: 1280x720</text>
<text text-anchor="middle" x="268" y="-59.8" font-family="Times,serif" font-size="14.00">HS: 1280x720</text>
</g>
<!-- frontend -->
<g id="node2" class="node"><title>frontend</title>
<path fill="lightblue" stroke="black" d="M65.5,-211C65.5,-211 152.5,-211 152.5,-211 158.5,-211 164.5,-217 164.5,-223 164.5,-223 164.5,-237 164.5,-237 164.5,-243 158.5,-249 152.5,-249 152.5,-249 65.5,-249 65.5,-249 59.5,-249 53.5,-243 53.5,-237 53.5,-237 53.5,-223 53.5,-223 53.5,-217 59.5,-211 65.5,-211"/>
<text text-anchor="middle" x="65" y="-226.3" font-family="Times,serif" font-size="14.00">0</text>
<polyline fill="none" stroke="black" points="76.5,-211 76.5,-249 "/>
<text text-anchor="middle" x="109" y="-233.8" font-family="Times,serif" font-size="14.00">Host</text>
<text text-anchor="middle" x="109" y="-218.8" font-family="Times,serif" font-size="14.00">Frontend</text>
<polyline fill="none" stroke="black" points="141.5,-211 141.5,-249 "/>
<text text-anchor="middle" x="153" y="-226.3" font-family="Times,serif" font-size="14.00">1</text>
</g>
<!-- frontend&#45;&gt;scaler -->
<g id="edge2" class="edge"><title>frontend:frontend_1&#45;&gt;scaler:scaler_0</title>
<path fill="none" stroke="blue" d="M153,-210C153,-184.333 153,-175.51 153,-154.055"/>
<polygon fill="blue" stroke="blue" points="156.5,-154 153,-144 149.5,-154 156.5,-154"/>
<text text-anchor="middle" x="197" y="-180.8" font-family="Times,serif" font-size="14.00">HQ: 2592x1968</text>
<text text-anchor="middle" x="197" y="-165.8" font-family="Times,serif" font-size="14.00">HS: 1296x984</text>
</g>
<!-- sensor -->
<g id="node3" class="node"><title>sensor</title>
<path fill="aquamarine" stroke="black" d="M12,-317C12,-317 64,-317 64,-317 70,-317 76,-323 76,-329 76,-329 76,-341 76,-341 76,-347 70,-353 64,-353 64,-353 12,-353 12,-353 6,-353 0,-347 0,-341 0,-341 0,-329 0,-329 0,-323 6,-317 12,-317"/>
<text text-anchor="middle" x="26.5" y="-331.3" font-family="Times,serif" font-size="14.00">Sensor</text>
<polyline fill="none" stroke="black" points="53,-317 53,-353 "/>
<text text-anchor="middle" x="64.5" y="-331.3" font-family="Times,serif" font-size="14.00">0</text>
</g>
<!-- sensor&#45;&gt;frontend -->
<g id="edge1" class="edge"><title>sensor:sensor_0&#45;&gt;frontend:frontend_0</title>
<path fill="none" stroke="blue" d="M65,-316C65,-290.333 65,-281.51 65,-260.055"/>
<polygon fill="blue" stroke="blue" points="68.5001,-260 65,-250 61.5001,-260 68.5001,-260"/>
<text text-anchor="middle" x="109" y="-286.8" font-family="Times,serif" font-size="14.00">HQ: 2592x1968</text>
<text text-anchor="middle" x="109" y="-271.8" font-family="Times,serif" font-size="14.00">HS: 1296x984</text>
</g>
</g>
</svg>
