<?xml version="1.0" encoding="UTF-8" standalone="no"?>
<!DOCTYPE svg PUBLIC "-//W3C//DTD SVG 1.1//EN"
 "http://www.w3.org/Graphics/SVG/1.1/DTD/svg11.dtd">
<!-- Generated by graphviz version 2.30.1 (20140821.0912)
 -->
<!-- Title: board Pages: 1 -->
<svg width="537pt" height="656pt"
 viewBox="0.00 0.00 537.00 656.00" xmlns="http://www.w3.org/2000/svg" xmlns:xlink="http://www.w3.org/1999/xlink">
<g id="graph0" class="graph" transform="scale(1 1) rotate(0) translate(4 652)">
<title>board</title>
<polygon fill="white" stroke="white" points="-4,5 -4,-652 534,-652 534,5 -4,5"/>
<!-- n00000001 -->
<g id="node1" class="node"><title>n00000001</title>
<path fill="green" stroke="black" d="M157,-441C157,-441 243,-441 243,-441 249,-441 255,-447 255,-453 255,-453 255,-513 255,-513 255,-519 249,-525 243,-525 243,-525 157,-525 157,-525 151,-525 145,-519 145,-513 145,-513 145,-453 145,-453 145,-447 151,-441 157,-441"/>
<text text-anchor="middle" x="200" y="-509.8" font-family="Times,serif" font-size="14.00">0</text>
<polyline fill="none" stroke="black" points="145,-502 255,-502 "/>
<text text-anchor="middle" x="200" y="-486.8" font-family="Times,serif" font-size="14.00">msm_csiphy0</text>
<text text-anchor="middle" x="200" y="-471.8" font-family="Times,serif" font-size="14.00">/dev/v4l&#45;subdev0</text>
<polyline fill="none" stroke="black" points="145,-464 255,-464 "/>
<text text-anchor="middle" x="200" y="-448.8" font-family="Times,serif" font-size="14.00">1</text>
</g>
<!-- n00000007 -->
<g id="node2" class="node"><title>n00000007</title>
<path fill="green" stroke="black" d="M157,-319C157,-319 243,-319 243,-319 249,-319 255,-325 255,-331 255,-331 255,-391 255,-391 255,-397 249,-403 243,-403 243,-403 157,-403 157,-403 151,-403 145,-397 145,-391 145,-391 145,-331 145,-331 145,-325 151,-319 157,-319"/>
<text text-anchor="middle" x="200" y="-387.8" font-family="Times,serif" font-size="14.00">0</text>
<polyline fill="none" stroke="black" points="145,-380 255,-380 "/>
<text text-anchor="middle" x="200" y="-364.8" font-family="Times,serif" font-size="14.00">msm_csid0</text>
<text text-anchor="middle" x="200" y="-349.8" font-family="Times,serif" font-size="14.00">/dev/v4l&#45;subdev2</text>
<polyline fill="none" stroke="black" points="145,-342 255,-342 "/>
<text text-anchor="middle" x="200" y="-326.8" font-family="Times,serif" font-size="14.00">1</text>
</g>
<!-- n00000001&#45;&gt;n00000007 -->
<g id="edge1" class="edge"><title>n00000001:port1&#45;&gt;n00000007:port0</title>
<path fill="none" stroke="black" stroke-dasharray="5,2" d="M200,-440C200,-428 200,-422.75 200,-414.125"/>
<polygon fill="black" stroke="black" points="203.5,-414 200,-404 196.5,-414 203.5,-414"/>
</g>
<!-- n0000000a -->
<g id="node3" class="node"><title>n0000000a</title>
<path fill="green" stroke="black" d="M285,-319C285,-319 371,-319 371,-319 377,-319 383,-325 383,-331 383,-331 383,-391 383,-391 383,-397 377,-403 371,-403 371,-403 285,-403 285,-403 279,-403 273,-397 273,-391 273,-391 273,-331 273,-331 273,-325 279,-319 285,-319"/>
<text text-anchor="middle" x="328" y="-387.8" font-family="Times,serif" font-size="14.00">0</text>
<polyline fill="none" stroke="black" points="273,-380 383,-380 "/>
<text text-anchor="middle" x="328" y="-364.8" font-family="Times,serif" font-size="14.00">msm_csid1</text>
<text text-anchor="middle" x="328" y="-349.8" font-family="Times,serif" font-size="14.00">/dev/v4l&#45;subdev3</text>
<polyline fill="none" stroke="black" points="273,-342 383,-342 "/>
<text text-anchor="middle" x="328" y="-326.8" font-family="Times,serif" font-size="14.00">1</text>
</g>
<!-- n00000001&#45;&gt;n0000000a -->
<g id="edge2" class="edge"><title>n00000001:port1&#45;&gt;n0000000a:port0</title>
<path fill="none" stroke="black" stroke-dasharray="5,2" d="M256,-452C266.565,-452 262.242,-416.829 265.829,-400.343"/>
<polygon fill="black" stroke="black" points="268.867,-402.121 272,-392 263.239,-397.958 268.867,-402.121"/>
</g>
<!-- n0000000d -->
<g id="node5" class="node"><title>n0000000d</title>
<path fill="green" stroke="black" d="M157,-197C157,-197 243,-197 243,-197 249,-197 255,-203 255,-209 255,-209 255,-269 255,-269 255,-275 249,-281 243,-281 243,-281 157,-281 157,-281 151,-281 145,-275 145,-269 145,-269 145,-209 145,-209 145,-203 151,-197 157,-197"/>
<text text-anchor="middle" x="200" y="-265.8" font-family="Times,serif" font-size="14.00">0</text>
<polyline fill="none" stroke="black" points="145,-258 255,-258 "/>
<text text-anchor="middle" x="200" y="-242.8" font-family="Times,serif" font-size="14.00">msm_ispif0</text>
<text text-anchor="middle" x="200" y="-227.8" font-family="Times,serif" font-size="14.00">/dev/v4l&#45;subdev4</text>
<polyline fill="none" stroke="black" points="145,-220 255,-220 "/>
<text text-anchor="middle" x="200" y="-204.8" font-family="Times,serif" font-size="14.00">1</text>
</g>
<!-- n00000007&#45;&gt;n0000000d -->
<g id="edge5" class="edge"><title>n00000007:port1&#45;&gt;n0000000d:port0</title>
<path fill="none" stroke="black" stroke-dasharray="5,2" d="M200,-318C200,-306 200,-300.75 200,-292.125"/>
<polygon fill="black" stroke="black" points="203.5,-292 200,-282 196.5,-292 203.5,-292"/>
</g>
<!-- n00000010 -->
<g id="node6" class="node"><title>n00000010</title>
<path fill="green" stroke="black" d="M285,-197C285,-197 371,-197 371,-197 377,-197 383,-203 383,-209 383,-209 383,-269 383,-269 383,-275 377,-281 371,-281 371,-281 285,-281 285,-281 279,-281 273,-275 273,-269 273,-269 273,-209 273,-209 273,-203 279,-197 285,-197"/>
<text text-anchor="middle" x="328" y="-265.8" font-family="Times,serif" font-size="14.00">0</text>
<polyline fill="none" stroke="black" points="273,-258 383,-258 "/>
<text text-anchor="middle" x="328" y="-242.8" font-family="Times,serif" font-size="14.00">msm_ispif1</text>
<text text-anchor="middle" x="328" y="-227.8" font-family="Times,serif" font-size="14.00">/dev/v4l&#45;subdev5</text>
<polyline fill="none" stroke="black" points="273,-220 383,-220 "/>
<text text-anchor="middle" x="328" y="-204.8" font-family="Times,serif" font-size="14.00">1</text>
</g>
<!-- n00000007&#45;&gt;n00000010 -->
<g id="edge6" class="edge"><title>n00000007:port1&#45;&gt;n00000010:port0</title>
<path fill="none" stroke="black" stroke-dasharray="5,2" d="M256,-330C266.565,-330 262.242,-294.829 265.829,-278.343"/>
<polygon fill="black" stroke="black" points="268.867,-280.121 272,-270 263.239,-275.958 268.867,-280.121"/>
</g>
<!-- n0000000a&#45;&gt;n0000000d -->
<g id="edge7" class="edge"><title>n0000000a:port1&#45;&gt;n0000000d:port0</title>
<path fill="none" stroke="black" stroke-dasharray="5,2" d="M272,-330C261.435,-330 265.758,-294.829 262.171,-278.343"/>
<polygon fill="black" stroke="black" points="264.761,-275.958 256,-270 259.133,-280.121 264.761,-275.958"/>
</g>
<!-- n0000000a&#45;&gt;n00000010 -->
<g id="edge8" class="edge"><title>n0000000a:port1&#45;&gt;n00000010:port0</title>
<path fill="none" stroke="black" stroke-dasharray="5,2" d="M328,-318C328,-306 328,-300.75 328,-292.125"/>
<polygon fill="black" stroke="black" points="331.5,-292 328,-282 324.5,-292 331.5,-292"/>
</g>
<!-- n00000004 -->
<g id="node4" class="node"><title>n00000004</title>
<path fill="green" stroke="black" d="M285,-441C285,-441 371,-441 371,-441 377,-441 383,-447 383,-453 383,-453 383,-513 383,-513 383,-519 377,-525 371,-525 371,-525 285,-525 285,-525 279,-525 273,-519 273,-513 273,-513 273,-453 273,-453 273,-447 279,-441 285,-441"/>
<text text-anchor="middle" x="328" y="-509.8" font-family="Times,serif" font-size="14.00">0</text>
<polyline fill="none" stroke="black" points="273,-502 383,-502 "/>
<text text-anchor="middle" x="328" y="-486.8" font-family="Times,serif" font-size="14.00">msm_csiphy1</text>
<text text-anchor="middle" x="328" y="-471.8" font-family="Times,serif" font-size="14.00">/dev/v4l&#45;subdev1</text>
<polyline fill="none" stroke="black" points="273,-464 383,-464 "/>
<text text-anchor="middle" x="328" y="-448.8" font-family="Times,serif" font-size="14.00">1</text>
</g>
<!-- n00000004&#45;&gt;n00000007 -->
<g id="edge3" class="edge"><title>n00000004:port1&#45;&gt;n00000007:port0</title>
<path fill="none" stroke="black" stroke-dasharray="5,2" d="M272,-452C261.435,-452 265.758,-416.829 262.171,-400.343"/>
<polygon fill="black" stroke="black" points="264.761,-397.958 256,-392 259.133,-402.121 264.761,-397.958"/>
</g>
<!-- n00000004&#45;&gt;n0000000a -->
<g id="edge4" class="edge"><title>n00000004:port1&#45;&gt;n0000000a:port0</title>
<path fill="none" stroke="black" stroke-dasharray="5,2" d="M328,-440C328,-428 328,-422.75 328,-414.125"/>
<polygon fill="black" stroke="black" points="331.5,-414 328,-404 324.5,-414 331.5,-414"/>
</g>
<!-- n00000013 -->
<g id="node7" class="node"><title>n00000013</title>
<path fill="green" stroke="black" d="M29,-75C29,-75 115,-75 115,-75 121,-75 127,-81 127,-87 127,-87 127,-147 127,-147 127,-153 121,-159 115,-159 115,-159 29,-159 29,-159 23,-159 17,-153 17,-147 17,-147 17,-87 17,-87 17,-81 23,-75 29,-75"/>
<text text-anchor="middle" x="72" y="-143.8" font-family="Times,serif" font-size="14.00">0</text>
<polyline fill="none" stroke="black" points="17,-136 127,-136 "/>
<text text-anchor="middle" x="72" y="-120.8" font-family="Times,serif" font-size="14.00">msm_vfe0_rdi0</text>
<text text-anchor="middle" x="72" y="-105.8" font-family="Times,serif" font-size="14.00">/dev/v4l&#45;subdev6</text>
<polyline fill="none" stroke="black" points="17,-98 127,-98 "/>
<text text-anchor="middle" x="72" y="-82.8" font-family="Times,serif" font-size="14.00">1</text>
</g>
<!-- n0000000d&#45;&gt;n00000013 -->
<g id="edge9" class="edge"><title>n0000000d:port1&#45;&gt;n00000013:port0</title>
<path fill="none" stroke="black" stroke-dasharray="5,2" d="M144,-208C133.435,-208 137.758,-172.829 134.171,-156.343"/>
<polygon fill="black" stroke="black" points="136.761,-153.958 128,-148 131.133,-158.121 136.761,-153.958"/>
</g>
<!-- n0000001c -->
<g id="node8" class="node"><title>n0000001c</title>
<path fill="green" stroke="black" d="M157,-75C157,-75 243,-75 243,-75 249,-75 255,-81 255,-87 255,-87 255,-147 255,-147 255,-153 249,-159 243,-159 243,-159 157,-159 157,-159 151,-159 145,-153 145,-147 145,-147 145,-87 145,-87 145,-81 151,-75 157,-75"/>
<text text-anchor="middle" x="200" y="-143.8" font-family="Times,serif" font-size="14.00">0</text>
<polyline fill="none" stroke="black" points="145,-136 255,-136 "/>
<text text-anchor="middle" x="200" y="-120.8" font-family="Times,serif" font-size="14.00">msm_vfe0_rdi1</text>
<text text-anchor="middle" x="200" y="-105.8" font-family="Times,serif" font-size="14.00">/dev/v4l&#45;subdev7</text>
<polyline fill="none" stroke="black" points="145,-98 255,-98 "/>
<text text-anchor="middle" x="200" y="-82.8" font-family="Times,serif" font-size="14.00">1</text>
</g>
<!-- n0000000d&#45;&gt;n0000001c -->
<g id="edge10" class="edge"><title>n0000000d:port1&#45;&gt;n0000001c:port0</title>
<path fill="none" stroke="black" stroke-dasharray="5,2" d="M200,-196C200,-184 200,-178.75 200,-170.125"/>
<polygon fill="black" stroke="black" points="203.5,-170 200,-160 196.5,-170 203.5,-170"/>
</g>
<!-- n00000025 -->
<g id="node9" class="node"><title>n00000025</title>
<path fill="green" stroke="black" d="M285,-75C285,-75 371,-75 371,-75 377,-75 383,-81 383,-87 383,-87 383,-147 383,-147 383,-153 377,-159 371,-159 371,-159 285,-159 285,-159 279,-159 273,-153 273,-147 273,-147 273,-87 273,-87 273,-81 279,-75 285,-75"/>
<text text-anchor="middle" x="328" y="-143.8" font-family="Times,serif" font-size="14.00">0</text>
<polyline fill="none" stroke="black" points="273,-136 383,-136 "/>
<text text-anchor="middle" x="328" y="-120.8" font-family="Times,serif" font-size="14.00">msm_vfe0_rdi2</text>
<text text-anchor="middle" x="328" y="-105.8" font-family="Times,serif" font-size="14.00">/dev/v4l&#45;subdev8</text>
<polyline fill="none" stroke="black" points="273,-98 383,-98 "/>
<text text-anchor="middle" x="328" y="-82.8" font-family="Times,serif" font-size="14.00">1</text>
</g>
<!-- n0000000d&#45;&gt;n00000025 -->
<g id="edge11" class="edge"><title>n0000000d:port1&#45;&gt;n00000025:port0</title>
<path fill="none" stroke="black" stroke-dasharray="5,2" d="M256,-208C266.565,-208 262.242,-172.829 265.829,-156.343"/>
<polygon fill="black" stroke="black" points="268.867,-158.121 272,-148 263.239,-153.958 268.867,-158.121"/>
</g>
<!-- n0000002e -->
<g id="node10" class="node"><title>n0000002e</title>
<path fill="green" stroke="black" d="M413,-75C413,-75 499,-75 499,-75 505,-75 511,-81 511,-87 511,-87 511,-147 511,-147 511,-153 505,-159 499,-159 499,-159 413,-159 413,-159 407,-159 401,-153 401,-147 401,-147 401,-87 401,-87 401,-81 407,-75 413,-75"/>
<text text-anchor="middle" x="456" y="-143.8" font-family="Times,serif" font-size="14.00">0</text>
<polyline fill="none" stroke="black" points="401,-136 511,-136 "/>
<text text-anchor="middle" x="456" y="-120.8" font-family="Times,serif" font-size="14.00">msm_vfe0_pix</text>
<text text-anchor="middle" x="456" y="-105.8" font-family="Times,serif" font-size="14.00">/dev/v4l&#45;subdev9</text>
<polyline fill="none" stroke="black" points="401,-98 511,-98 "/>
<text text-anchor="middle" x="456" y="-82.8" font-family="Times,serif" font-size="14.00">1</text>
</g>
<!-- n0000000d&#45;&gt;n0000002e -->
<g id="edge12" class="edge"><title>n0000000d:port1&#45;&gt;n0000002e:port0</title>
<path fill="none" stroke="black" stroke-dasharray="5,2" d="M256,-208C262.41,-208 258.815,-199.768 264,-196 311.804,-161.256 344.196,-194.744 392,-160 393.296,-159.058 394.044,-157.837 394.536,-156.535"/>
<polygon fill="black" stroke="black" points="397.556,-158.309 400,-148 391.661,-154.535 397.556,-158.309"/>
</g>
<!-- n00000010&#45;&gt;n00000013 -->
<g id="edge13" class="edge"><title>n00000010:port1&#45;&gt;n00000013:port0</title>
<path fill="none" stroke="black" stroke-dasharray="5,2" d="M272,-208C265.59,-208 269.185,-199.768 264,-196 216.196,-161.256 183.804,-194.744 136,-160 134.704,-159.058 133.956,-157.837 133.464,-156.535"/>
<polygon fill="black" stroke="black" points="136.339,-154.535 128,-148 130.444,-158.309 136.339,-154.535"/>
</g>
<!-- n00000010&#45;&gt;n0000001c -->
<g id="edge14" class="edge"><title>n00000010:port1&#45;&gt;n0000001c:port0</title>
<path fill="none" stroke="black" stroke-dasharray="5,2" d="M272,-208C261.435,-208 265.758,-172.829 262.171,-156.343"/>
<polygon fill="black" stroke="black" points="264.761,-153.958 256,-148 259.133,-158.121 264.761,-153.958"/>
</g>
<!-- n00000010&#45;&gt;n00000025 -->
<g id="edge15" class="edge"><title>n00000010:port1&#45;&gt;n00000025:port0</title>
<path fill="none" stroke="black" stroke-dasharray="5,2" d="M328,-196C328,-184 328,-178.75 328,-170.125"/>
<polygon fill="black" stroke="black" points="331.5,-170 328,-160 324.5,-170 331.5,-170"/>
</g>
<!-- n00000010&#45;&gt;n0000002e -->
<g id="edge16" class="edge"><title>n00000010:port1&#45;&gt;n0000002e:port0</title>
<path fill="none" stroke="black" stroke-dasharray="5,2" d="M384,-208C394.565,-208 390.242,-172.829 393.829,-156.343"/>
<polygon fill="black" stroke="black" points="396.867,-158.121 400,-148 391.239,-153.958 396.867,-158.121"/>
</g>
<!-- n00000016 -->
<g id="node11" class="node"><title>n00000016</title>
<polygon fill="yellow" stroke="black" points="118.25,-38 -0.25,-38 -0.25,-0 118.25,-0 118.25,-38"/>
<text text-anchor="middle" x="59" y="-22.8" font-family="Times,serif" font-size="14.00">msm_vfe0_video0</text>
<text text-anchor="middle" x="59" y="-7.8" font-family="Times,serif" font-size="14.00">/dev/video0</text>
</g>
<!-- n00000013&#45;&gt;n00000016 -->
<g id="edge17" class="edge"><title>n00000013:port1&#45;&gt;n00000016</title>
<path fill="none" stroke="black" stroke-width="2" d="M72,-74C72,-65.457 70.4431,-56.3597 68.4068,-48.1149"/>
<polygon fill="black" stroke="black" points="71.709,-46.9262 65.6523,-38.2333 64.966,-48.8059 71.709,-46.9262"/>
</g>
<!-- n0000001f -->
<g id="node12" class="node"><title>n0000001f</title>
<polygon fill="yellow" stroke="black" points="255.25,-38 136.75,-38 136.75,-0 255.25,-0 255.25,-38"/>
<text text-anchor="middle" x="196" y="-22.8" font-family="Times,serif" font-size="14.00">msm_vfe0_video1</text>
<text text-anchor="middle" x="196" y="-7.8" font-family="Times,serif" font-size="14.00">/dev/video1</text>
</g>
<!-- n0000001c&#45;&gt;n0000001f -->
<g id="edge18" class="edge"><title>n0000001c:port1&#45;&gt;n0000001f</title>
<path fill="none" stroke="black" stroke-width="2" d="M200,-74C200,-65.7641 199.532,-56.8409 198.915,-48.6654"/>
<polygon fill="black" stroke="black" points="202.383,-48.1362 198.047,-38.4693 195.408,-48.7303 202.383,-48.1362"/>
</g>
<!-- n00000028 -->
<g id="node13" class="node"><title>n00000028</title>
<polygon fill="yellow" stroke="black" points="392.25,-38 273.75,-38 273.75,-0 392.25,-0 392.25,-38"/>
<text text-anchor="middle" x="333" y="-22.8" font-family="Times,serif" font-size="14.00">msm_vfe0_video2</text>
<text text-anchor="middle" x="333" y="-7.8" font-family="Times,serif" font-size="14.00">/dev/video2</text>
</g>
<!-- n00000025&#45;&gt;n00000028 -->
<g id="edge19" class="edge"><title>n00000025:port1&#45;&gt;n00000028</title>
<path fill="none" stroke="black" stroke-width="2" d="M328,-74C328,-65.7515 328.586,-56.8243 329.356,-48.649"/>
<polygon fill="black" stroke="black" points="332.863,-48.7697 330.441,-38.4553 325.902,-48.0284 332.863,-48.7697"/>
</g>
<!-- n00000031 -->
<g id="node14" class="node"><title>n00000031</title>
<polygon fill="yellow" stroke="black" points="529.25,-38 410.75,-38 410.75,-0 529.25,-0 529.25,-38"/>
<text text-anchor="middle" x="470" y="-22.8" font-family="Times,serif" font-size="14.00">msm_vfe0_video3</text>
<text text-anchor="middle" x="470" y="-7.8" font-family="Times,serif" font-size="14.00">/dev/video3</text>
</g>
<!-- n0000002e&#45;&gt;n00000031 -->
<g id="edge20" class="edge"><title>n0000002e:port1&#45;&gt;n00000031</title>
<path fill="none" stroke="black" stroke-width="2" d="M456,-74C456,-65.3244 457.714,-56.1085 459.943,-47.7926"/>
<polygon fill="black" stroke="black" points="463.302,-48.7768 462.836,-38.1922 456.599,-46.757 463.302,-48.7768"/>
</g>
<!-- n00000057 -->
<g id="node15" class="node"><title>n00000057</title>
<path fill="green" stroke="black" d="M150.5,-563C150.5,-563 243.5,-563 243.5,-563 249.5,-563 255.5,-569 255.5,-575 255.5,-575 255.5,-635 255.5,-635 255.5,-641 249.5,-647 243.5,-647 243.5,-647 150.5,-647 150.5,-647 144.5,-647 138.5,-641 138.5,-635 138.5,-635 138.5,-575 138.5,-575 138.5,-569 144.5,-563 150.5,-563"/>
<text text-anchor="middle" x="197" y="-631.8" font-family="Times,serif" font-size="14.00"> </text>
<polyline fill="none" stroke="black" points="138.5,-624 255.5,-624 "/>
<text text-anchor="middle" x="197" y="-608.8" font-family="Times,serif" font-size="14.00">ov5645 1&#45;0076</text>
<text text-anchor="middle" x="197" y="-593.8" font-family="Times,serif" font-size="14.00">/dev/v4l&#45;subdev10</text>
<polyline fill="none" stroke="black" points="138.5,-586 255.5,-586 "/>
<text text-anchor="middle" x="197" y="-570.8" font-family="Times,serif" font-size="14.00">0</text>
</g>
<!-- n00000057&#45;&gt;n00000001 -->
<g id="edge21" class="edge"><title>n00000057:port0&#45;&gt;n00000001:port0</title>
<path fill="none" stroke="black" stroke-width="2" d="M197,-562C197,-549.958 198.688,-544.76 199.531,-536.141"/>
<polygon fill="black" stroke="black" points="203.034,-536.151 200,-526 196.042,-535.828 203.034,-536.151"/>
</g>
<!-- n00000059 -->
<g id="node16" class="node"><title>n00000059</title>
<path fill="green" stroke="black" d="M285.5,-563C285.5,-563 378.5,-563 378.5,-563 384.5,-563 390.5,-569 390.5,-575 390.5,-575 390.5,-635 390.5,-635 390.5,-641 384.5,-647 378.5,-647 378.5,-647 285.5,-647 285.5,-647 279.5,-647 273.5,-641 273.5,-635 273.5,-635 273.5,-575 273.5,-575 273.5,-569 279.5,-563 285.5,-563"/>
<text text-anchor="middle" x="332" y="-631.8" font-family="Times,serif" font-size="14.00"> </text>
<polyline fill="none" stroke="black" points="273.5,-624 390.5,-624 "/>
<text text-anchor="middle" x="332" y="-608.8" font-family="Times,serif" font-size="14.00">ov5645 1&#45;0074</text>
<text text-anchor="middle" x="332" y="-593.8" font-family="Times,serif" font-size="14.00">/dev/v4l&#45;subdev11</text>
<polyline fill="none" stroke="black" points="273.5,-586 390.5,-586 "/>
<text text-anchor="middle" x="332" y="-570.8" font-family="Times,serif" font-size="14.00">0</text>
</g>
<!-- n00000059&#45;&gt;n00000004 -->
<g id="edge22" class="edge"><title>n00000059:port0&#45;&gt;n00000004:port0</title>
<path fill="none" stroke="black" stroke-width="2" d="M332,-562C332,-549.926 329.75,-544.768 328.625,-536.153"/>
<polygon fill="black" stroke="black" points="332.108,-535.766 328,-526 325.121,-536.196 332.108,-535.766"/>
</g>
</g>
</svg>
